<?xml version="1.0" encoding="UTF-8"?>
<!DOCTYPE svg PUBLIC "-//W3C//DTD SVG 1.1//EN" "http://www.w3.org/Graphics/SVG/1.1/DTD/svg11.dtd">
<svg xmlns="http://www.w3.org/2000/svg" version="1.1" width="494px" height="505px" style="shape-rendering:geometricPrecision; text-rendering:geometricPrecision; image-rendering:optimizeQuality; fill-rule:evenodd; clip-rule:evenodd" xmlns:xlink="http://www.w3.org/1999/xlink">
<g><path style="opacity:1" fill="#000000" d="M 133.5,37.5 C 138.897,38.6085 143.897,40.7752 148.5,44C 161.463,57.2898 173.296,71.4565 184,86.5C 204.778,119.276 227.111,150.942 251,181.5C 257.531,188.365 264.364,194.865 271.5,201C 287.232,211.692 302.232,210.692 316.5,198C 334.124,180.215 349.957,161.049 364,140.5C 375.333,123.833 386.667,107.167 398,90.5C 398.471,88.7536 399.138,87.087 400,85.5C 401.333,84.1667 402.667,84.1667 404,85.5C 408.7,149.439 412.367,213.439 415,277.5C 415.809,301.517 415.476,325.517 414,349.5C 411.099,381.491 400.432,410.491 382,436.5C 377.397,441.104 372.23,444.938 366.5,448C 358.273,451.682 350.606,450.682 343.5,445C 330.537,431.71 318.704,417.544 308,402.5C 288.565,371.96 267.899,342.294 246,313.5C 237.464,303.297 227.964,294.13 217.5,286C 202.342,277.531 188.342,279.197 175.5,291C 157.876,308.785 142.043,327.951 128,348.5C 116.073,366.029 104.406,383.695 93,401.5C 91.3333,402.833 89.6667,402.833 88,401.5C 81.1643,318.962 77.4976,236.296 77,153.5C 76.7616,118.336 86.0949,86.0022 105,56.5C 112.676,47.2579 122.176,40.9245 133.5,37.5 Z M 133.5,74.5 C 136.64,75.1289 139.14,76.7956 141,79.5C 158.871,100.033 175.204,121.7 190,144.5C 204.656,167.965 206.323,192.298 195,217.5C 189.17,228.497 182.837,239.164 176,249.5C 157.149,274.529 137.816,299.196 118,323.5C 115.892,326.79 113.559,327.123 111,324.5C 110.333,274.5 110.333,224.5 111,174.5C 111.108,152.316 113.108,130.316 117,108.5C 119.629,95.5796 125.129,84.2463 133.5,74.5 Z M 374.5,163.5 C 376.451,163.227 377.951,163.893 379,165.5C 379.667,215.5 379.667,265.5 379,315.5C 378.892,337.684 376.892,359.684 373,381.5C 370.222,392.507 365.888,402.84 360,412.5C 355.96,415.969 352.293,415.303 349,410.5C 331.129,389.967 314.796,368.3 300,345.5C 285.344,322.035 283.677,297.702 295,272.5C 305.259,252.97 317.259,234.637 331,217.5C 345.713,199.626 360.213,181.626 374.5,163.5 Z"/></g>
</svg>
